<?xml version="1.0" encoding="UTF-8" standalone="no"?>
<!-- Generator: Adobe Illustrator 16.0.0, SVG Export Plug-In . SVG Version: 6.00 Build 0)  -->

<svg
   xmlns:dc="http://purl.org/dc/elements/1.1/"
   xmlns:cc="http://creativecommons.org/ns#"
   xmlns:rdf="http://www.w3.org/1999/02/22-rdf-syntax-ns#"
   xmlns:svg="http://www.w3.org/2000/svg"
   xmlns="http://www.w3.org/2000/svg"
   xmlns:sodipodi="http://sodipodi.sourceforge.net/DTD/sodipodi-0.dtd"
   xmlns:inkscape="http://www.inkscape.org/namespaces/inkscape"
   version="1.1"
   x="0px"
   y="0px"
   width="90.708"
   height="90.708"
   viewBox="0 0 90.707996 90.707999"
   enable-background="new 0 0 595.275 841.89"
   xml:space="preserve"
   id="svg2"
   inkscape:version="0.91 r13725"
   sodipodi:docname="openGIS-logo-round-green-no-text-bg-white.svg"><metadata
     id="metadata126"><rdf:RDF><cc:Work
         rdf:about=""><dc:format>image/svg+xml</dc:format><dc:type
           rdf:resource="http://purl.org/dc/dcmitype/StillImage" /><dc:title></dc:title></cc:Work></rdf:RDF></metadata><defs
     id="defs124" /><sodipodi:namedview
     pagecolor="#ffffff"
     bordercolor="#666666"
     borderopacity="1"
     objecttolerance="10"
     gridtolerance="10"
     guidetolerance="10"
     inkscape:pageopacity="0"
     inkscape:pageshadow="2"
     inkscape:window-width="1600"
     inkscape:window-height="876"
     id="namedview122"
     showgrid="false"
     inkscape:zoom="1.5857387"
     inkscape:cx="-234.16319"
     inkscape:cy="105.0998"
     inkscape:window-x="0"
     inkscape:window-y="24"
     inkscape:window-maximized="1"
     inkscape:current-layer="g2985"
     fit-margin-top="0"
     fit-margin-left="0"
     fit-margin-right="0"
     fit-margin-bottom="0" /><g
     id="g2985"
     transform="matrix(-1,0,0,1,90.70798,0)"><g
       id="g2986"
       transform="matrix(-1,0,0,1,90.70798,0)"
       style="fill:#ffffff"><g
         id="g93"
         transform="translate(-334.48801,-425.197)"
         style="fill:#ffffff;fill-opacity:1"><path
           style="fill:#ffffff;fill-opacity:0.49019608"
           inkscape:connector-curvature="0"
           id="path95"
           d="m 379.842,425.197 c -25.048,0 -45.354,20.304 -45.354,45.354 0,25.048 20.306,45.354 45.354,45.354 25.049,0 45.354,-20.307 45.354,-45.354 0,-25.05 -20.305,-45.354 -45.354,-45.354 z m 0,86.174 c -22.545,0 -40.819,-18.275 -40.819,-40.82 0,-22.544 18.274,-40.819 40.819,-40.819 22.543,0 40.817,18.275 40.817,40.819 0.001,22.545 -18.274,40.82 -40.817,40.82 z" /></g><path
         style="fill:#ffffff;fill-opacity:1"
         inkscape:connector-curvature="0"
         id="path119"
         d="m 63.493993,43.54 v 1.813 h 16.331 c 0,9.017 -7.313,16.329 -16.331,16.329 -9.016,0 -16.324,-7.313 -16.324,-16.329 0,-9.016 7.309,-16.328 16.324,-16.328 4.443,0 8.475,1.774 11.419,4.653 l 1.412,-1.153 c -3.284,-3.283 -7.818,-5.313 -12.831,-5.313 -10.019,0 -18.137,8.121 -18.137,18.141 0,10.02 8.118,18.142 18.137,18.142 10.021,0 18.144,-8.122 18.144,-18.142 V 43.54 h -18.144 z" /><g
         id="grille"
         transform="translate(-334.48801,-425.197)"
         style="fill:#ffffff;fill-opacity:1" /></g></g></svg>