<?xml version="1.0" encoding="UTF-8" standalone="no"?>
<svg
   xmlns:dc="http://purl.org/dc/elements/1.1/"
   xmlns:cc="http://creativecommons.org/ns#"
   xmlns:rdf="http://www.w3.org/1999/02/22-rdf-syntax-ns#"
   xmlns:svg="http://www.w3.org/2000/svg"
   xmlns="http://www.w3.org/2000/svg"
   xmlns:sodipodi="http://sodipodi.sourceforge.net/DTD/sodipodi-0.dtd"
   xmlns:inkscape="http://www.inkscape.org/namespaces/inkscape"
   id="Ebene_1"
   data-name="Ebene 1"
   viewBox="0 0 577.71 500.31"
   version="1.1"
   sodipodi:docname="qfield_cloud_v07_transparent.svg"
   inkscape:version="0.92.5 (2060ec1f9f, 2020-04-08)">
  <metadata
     id="metadata23">
    <rdf:RDF>
      <cc:Work
         rdf:about="">
        <dc:format>image/svg+xml</dc:format>
        <dc:type
           rdf:resource="http://purl.org/dc/dcmitype/StillImage" />
        <dc:title></dc:title>
      </cc:Work>
    </rdf:RDF>
  </metadata>
  <sodipodi:namedview
     pagecolor="#ffffff"
     bordercolor="#666666"
     borderopacity="1"
     objecttolerance="10"
     gridtolerance="10"
     guidetolerance="10"
     inkscape:pageopacity="0"
     inkscape:pageshadow="2"
     inkscape:window-width="1920"
     inkscape:window-height="1029"
     id="namedview21"
     showgrid="false"
     inkscape:zoom="1.8868302"
     inkscape:cx="368.15791"
     inkscape:cy="229.66376"
     inkscape:window-x="1920"
     inkscape:window-y="27"
     inkscape:window-maximized="0"
     inkscape:current-layer="Ebene_1" />
  <defs
     id="defs4">
    <style
       id="style2">.cls-1{fill:#fff;}.cls-2{font-size:46.06px;font-family:Lato-Bold, Lato;font-weight:700;letter-spacing:0.02em;}.cls-2,.cls-3{fill:#4a6fae;}</style>
  </defs>
  <text
     class="cls-2"
     transform="translate(152.85 447.47)"
     id="text8">QFieldCloud</text>
  <path
     class="cls-3"
     d="M291.36,249.43a11.92,11.92,0,1,0-11.91,11.91A11.92,11.92,0,0,0,291.36,249.43Z"
     transform="translate(-11.68 -52.69)"
     id="path10" />
  <path
     class="cls-3"
     d="M310.67,249.43a11.92,11.92,0,1,0,11.92-11.92A11.92,11.92,0,0,0,310.67,249.43Z"
     transform="translate(-11.68 -52.69)"
     id="path12" />
  <path
     class="cls-3"
     d="M213.49,293.66a94.53,94.53,0,0,0,14.4,24.52,95.82,95.82,0,0,0,72.67,34,98.34,98.34,0,0,0,68.63-28.38,94.44,94.44,0,0,0,21.65-36.62,3.2,3.2,0,0,0-4.62-3.75,53.57,53.57,0,1,1-37.37-99.1,3.2,3.2,0,0,0,1-5.86,93.5,93.5,0,0,0-29.22-11.58c-3-13.37-7.53-21.21-11.6-28.12a270.52,270.52,0,0,0-15.44-22.3,19.34,19.34,0,0,0-8.47-8.23c-8-4.12-17.1-2.52-20.23,3.58s.85,14.39,8.89,18.52c.47.24.94.46,1.42.66h0a20.41,20.41,0,0,0,5.52,1.48,37.81,37.81,0,0,1,13,7.71C298,144.15,306,157.9,307,165.05c-2-.12-4-.19-6-.19q-4.23,0-8.41.38c-8-10.49-14.87-17.78-21.31-23.15-7-5.81-16.45-12.32-19.9-14h0a19.68,19.68,0,0,0-10.4-2.83c-9,0-16.36,5.56-16.36,12.42S232,150.11,241,150.11a22,22,0,0,0,3.94-.37h0l.06,0a19,19,0,0,0,3.8-1.11,18.56,18.56,0,0,1,8.56,0c5.64,1.55,22.23,13.7,20.8,19.08a93.75,93.75,0,0,0-26,10.83,3.2,3.2,0,0,0,1,5.86,53.56,53.56,0,1,1-37.36,99.1,3.2,3.2,0,0,0-4.76,2.58Q212.1,289.92,213.49,293.66Z"
     transform="translate(-11.68 -52.69)"
     id="path14" />
  <path
     class="cls-3"
     d="M353.21,422.41c-.92-.15-5.66-.27-5.66-.27-7.7-.93-10-19.08-10.58-25.61a59.64,59.64,0,0,0,11.82-12.24,113.56,113.56,0,0,1-95.09.63,59.55,59.55,0,0,0,11.37,11.61c-.58,6.53-2.89,24.68-10.59,25.61,0,0-4.74.12-5.65.27-4.55,1-7.83,4-7.83,7.53,0,4.39,5.11,7.95,11.42,7.95,0,0,13.77,1.17,16.76-1.35s4.55-4.73,4-15.87S282.68,406.49,283,406c5.68,1.83,11.73,15.63,18,15.63s12.33-13.8,18-15.63c.33.5,10.43,3.54,9.85,14.68s1,13.35,4,15.87,16.77,1.35,16.77,1.35c6.3,0,11.41-3.56,11.41-7.95C361,426.43,357.75,423.45,353.21,422.41Z"
     transform="translate(-11.68 -52.69)"
     id="path16" />
  <path
     class="cls-3"
     d="M376.8,362.16h0l-.05,0a3.65,3.65,0,0,0-.54-.32c-8.18-5-12.43-10.24-14.63-14.15a100.89,100.89,0,0,1-121.43.47c-2.27,3.86-6.5,8.9-14.36,13.68a5.09,5.09,0,0,0-.54.32l-.05,0h0a8.71,8.71,0,1,0,13.08,9.6c.76-2.33,1.71-5.55,3.08-8.78l2.33,1.35c15.94,10,38.13,16.71,56.87,16.71,19.93,0,41.66-7,58.09-18.08l1.43-1.23a88,88,0,0,1,3.65,10,8.71,8.71,0,1,0,13.07-9.6Z"
     transform="translate(-11.68 -52.69)"
     id="path18" />
</svg>
