<?xml version="1.0" encoding="UTF-8" standalone="no"?>
<!-- Generator: Adobe Illustrator 16.0.0, SVG Export Plug-In . SVG Version: 6.00 Build 0)  -->

<svg
   xmlns:dc="http://purl.org/dc/elements/1.1/"
   xmlns:cc="http://creativecommons.org/ns#"
   xmlns:rdf="http://www.w3.org/1999/02/22-rdf-syntax-ns#"
   xmlns:svg="http://www.w3.org/2000/svg"
   xmlns="http://www.w3.org/2000/svg"
   xmlns:xlink="http://www.w3.org/1999/xlink"
   xmlns:sodipodi="http://sodipodi.sourceforge.net/DTD/sodipodi-0.dtd"
   xmlns:inkscape="http://www.inkscape.org/namespaces/inkscape"
   version="1.1"
   id="Layer_1"
   x="0px"
   y="0px"
   width="300"
   height="100"
   viewBox="0 0 299.99999 99.999998"
   enable-background="new 0 0 197.906 282.945"
   xml:space="preserve"
   inkscape:version="0.92.3 (2405546, 2018-03-11)"
   sodipodi:docname="openGIS-Text-new-white.svg"
   inkscape:export-filename="/home/marco/OPENGIS.ch-CLOUD/OPENGIS.ch/PR/corporate_identity/graphics/logos/openGIS-Text.png"
   inkscape:export-xdpi="290.07001"
   inkscape:export-ydpi="290.07001"><metadata
     id="metadata211"><rdf:RDF><cc:Work
         rdf:about=""><dc:format>image/svg+xml</dc:format><dc:type
           rdf:resource="http://purl.org/dc/dcmitype/StillImage" /><dc:title></dc:title></cc:Work></rdf:RDF></metadata><defs
     id="defs209"><clipPath
       id="SVGID_8_"><use
         xlink:href="#SVGID_7_"
         overflow="visible"
         id="use185"
         style="overflow:visible"
         x="0"
         y="0"
         width="197.90601"
         height="282.94501" /></clipPath><clipPath
       id="clipPath4188"><use
         xlink:href="#SVGID_7_"
         overflow="visible"
         id="use4190"
         style="overflow:visible"
         x="0"
         y="0"
         width="197.90601"
         height="282.94501" /></clipPath><clipPath
       id="clipPath4192"><use
         xlink:href="#SVGID_7_"
         overflow="visible"
         id="use4194"
         style="overflow:visible"
         x="0"
         y="0"
         width="197.90601"
         height="282.94501" /></clipPath><clipPath
       id="clipPath4196"><use
         xlink:href="#SVGID_7_"
         overflow="visible"
         id="use4198"
         style="overflow:visible"
         x="0"
         y="0"
         width="197.90601"
         height="282.94501" /></clipPath><clipPath
       id="SVGID_6_"><use
         xlink:href="#SVGID_5_"
         overflow="visible"
         id="use173"
         style="overflow:visible"
         x="0"
         y="0"
         width="197.90601"
         height="282.94501" /></clipPath><clipPath
       id="SVGID_4_"><use
         xlink:href="#SVGID_3_"
         overflow="visible"
         id="use157"
         style="overflow:visible"
         x="0"
         y="0"
         width="197.90601"
         height="282.94501" /></clipPath><clipPath
       id="clipPath4204"><use
         xlink:href="#SVGID_3_"
         overflow="visible"
         id="use4206"
         style="overflow:visible"
         x="0"
         y="0"
         width="197.90601"
         height="282.94501" /></clipPath></defs><sodipodi:namedview
     pagecolor="#ffffff"
     bordercolor="#666666"
     borderopacity="1"
     objecttolerance="10"
     gridtolerance="10"
     guidetolerance="10"
     inkscape:pageopacity="0"
     inkscape:pageshadow="2"
     inkscape:window-width="1920"
     inkscape:window-height="1016"
     id="namedview207"
     showgrid="false"
     inkscape:zoom="4.7182936"
     inkscape:cx="151.16354"
     inkscape:cy="43.157286"
     inkscape:window-x="0"
     inkscape:window-y="27"
     inkscape:window-maximized="1"
     inkscape:current-layer="g5067"
     fit-margin-top="0"
     fit-margin-left="0"
     fit-margin-right="0"
     fit-margin-bottom="0" /><g
     id="g5067"
     transform="translate(0,69.842652)"><text
   y="24.726347"
   x="1.2688526"
   style="font-size:35.99575424px;line-height:0%;fill:#ffffff;fill-opacity:0.94117647;"
   id="text109"><tspan
     style="font-style:normal;font-variant:normal;font-weight:normal;font-stretch:normal;font-size:25.86666667px;line-height:125%;font-family:'Futura Lt BT';-inkscape-font-specification:'Futura Lt BT, Normal';text-align:justify;writing-mode:lr-tb;text-anchor:start;fill:#ffffff;fill-opacity:0.94117647;"
     id="tspan111"
     font-size="9.5"
     y="24.726347"
     x="1.2688526">MOBILE · QGIS · POSTGIS</tspan></text>

<text
   y="27.348692"
   x="41.1213"
   style="font-size:9.5px;font-family:FuturaT-Light;fill:#ffffff;"
   id="text121"
   font-size="9.5" />

<text
   y="27.348692"
   x="42.574402"
   style="font-size:9.5px;font-family:FuturaT-Light;fill:#ffffff;fill-opacity:0.94117647;"
   id="text123"
   font-size="9.5" />

<text
   y="27.348692"
   x="44.816597"
   style="font-size:9.5px;font-family:FuturaT-Light;fill:#ffffff;"
   id="text125"
   font-size="9.5" />

<text
   y="28.3468"
   x="46.270203"
   style="font-size:9.5px;font-family:FuturaT-Light;fill:#ffffff;fill-opacity:0.94117647;"
   id="text127"
   font-size="9.5" />

<text
   y="28.3468"
   x="49.186699"
   style="font-size:9.5px;font-family:FuturaT-Light;fill:#ffffff;fill-opacity:0.94117647;"
   id="text129"
   font-size="9.5" />

<text
   y="28.3468"
   x="57.052399"
   style="font-size:9.5px;font-family:FuturaT-Light;fill:#ffffff;fill-opacity:0.94117647;"
   id="text131"
   font-size="9.5" />

<text
   y="27.348692"
   x="75.1315"
   style="font-size:9.5px;font-family:FuturaT-Light;fill:#ffffff;"
   id="text139"
   font-size="9.5" />

<text
   y="27.348692"
   x="76.584702"
   style="font-size:9.5px;font-family:FuturaT-Light;fill:#ffffff;fill-opacity:0.94117647;"
   id="text141"
   font-size="9.5" />

<text
   y="27.348692"
   x="78.826897"
   style="font-size:9.5px;font-family:FuturaT-Light;fill:#ffffff;"
   id="text143"
   font-size="9.5" />

<text
   y="28.3468"
   x="80.280006"
   style="fill:#ffffff;fill-opacity:0.94117647;"
   id="text145" />

<flowRoot
   xml:space="preserve"
   id="flowRoot4237"
   style="font-style:normal;font-weight:normal;line-height:0.01%;font-family:sans-serif;letter-spacing:0px;word-spacing:0px;fill:#ffffff;fill-opacity:1;stroke:none;stroke-width:1px;stroke-linecap:butt;stroke-linejoin:miter;stroke-opacity:1;"><flowRegion
     id="flowRegion4239"
     style="fill:#ffffff;"><rect
       id="rect4241"
       width="367.71768"
       height="78.842064"
       x="-47.898674"
       y="-19.3228"
       style="fill:#ffffff;" /></flowRegion><flowPara
     id="flowPara4243"
     style="font-size:40px;line-height:1.25;fill:#ffffff;"> </flowPara></flowRoot><g
   id="g4327"
   transform="matrix(2.9995243,0,0,2.9995243,-829.18629,-52.922392)"
   style="fill:#ffffff"><g
     transform="translate(227.43718,-153.74849)"
     style="fill:#ffffff;fill-opacity:0.94117647"
     id="g151"><defs
       id="defs153"><rect
         height="257.953"
         width="172.91299"
         y="12.496"
         x="12.496"
         id="SVGID_3_" /></defs><clipPath
       id="clipPath4211"><use
         height="282.94501"
         width="197.90601"
         y="0"
         x="0"
         style="overflow:visible"
         id="use4213"
         overflow="visible"
         xlink:href="#SVGID_3_" /></clipPath><path
       inkscape:connector-curvature="0"
       style="fill:#ffffff;fill-opacity:0.94117647"
       id="path159"
       d="m 51.38,156.597 c 0,2.835 2.215,5.062 4.993,5.062 2.759,0 4.973,-2.267 4.973,-5.062 0,-2.915 -2.155,-5.122 -4.973,-5.122 -2.819,0 -4.993,2.227 -4.993,5.122 m 12,-0.02 c 0,3.848 -3.141,7.006 -6.987,7.006 -3.946,0 -7.047,-3.058 -7.047,-6.966 0,-3.907 3.142,-7.065 7.047,-7.065 3.846,-0.001 6.987,3.157 6.987,7.025"
       clip-path="url(#SVGID_4_)" /><path
       inkscape:connector-curvature="0"
       style="fill:#ffffff;fill-opacity:0.94117647"
       id="path161"
       d="m 68.573,155.95 c 1.892,0 2.797,-0.709 2.797,-2.188 0,-1.377 -0.946,-2.064 -2.878,-2.064 l -0.665,0 0,4.252 0.746,0 z m -0.746,7.37 -2.033,0 0,-13.506 2.295,0 c 2.053,0 2.899,0.202 3.765,0.851 0.906,0.709 1.469,1.924 1.469,3.159 0,2.449 -1.771,4.009 -4.549,4.009 l -0.947,0 0,5.487 z"
       clip-path="url(#SVGID_4_)" /></g><polygon
     transform="translate(227.43718,-153.74849)"
     style="fill:#ffffff;fill-opacity:0.94117647"
     id="polygon163"
     points="75.277,149.814 82.686,149.814 82.686,151.738 77.309,151.738 77.309,154.978 82.524,154.978 82.524,156.901 77.309,156.901 77.309,161.396 82.686,161.396 82.686,163.32 75.277,163.32 " /><polygon
     transform="translate(227.43718,-153.74849)"
     style="fill:#ffffff;fill-opacity:0.94117647"
     id="polygon165"
     points="87.254,153.864 87.254,163.319 85.221,163.319 85.221,148.904 95.006,159.189 95.006,149.814 97.041,149.814 97.041,164.149 " /><g
     transform="translate(227.43718,-153.74849)"
     style="fill:#ffffff;fill-opacity:0.94117647"
     id="g167"><defs
       id="defs169"><rect
         height="257.953"
         width="172.91299"
         y="12.496"
         x="12.496"
         id="SVGID_5_" /></defs><clipPath
       id="clipPath4222"><use
         height="282.94501"
         width="197.90601"
         y="0"
         x="0"
         style="overflow:visible"
         id="use4224"
         overflow="visible"
         xlink:href="#SVGID_5_" /></clipPath><path
       inkscape:connector-curvature="0"
       style="fill:#ffffff;fill-opacity:0.94117647"
       id="path175"
       d="m 112.985,156.84 c 0,1.822 -0.202,2.713 -0.826,3.726 -1.106,1.803 -3.361,2.977 -5.678,2.977 -3.744,0 -6.885,-3.159 -6.885,-6.925 0,-3.848 3.16,-6.985 7.007,-6.985 2.335,0 4.066,0.931 5.818,3.159 l -0.704,0.546 c -0.565,-0.749 -0.866,-1.093 -1.289,-1.438 -1.028,-0.912 -2.478,-1.438 -3.866,-1.438 -3.301,0 -6.081,2.835 -6.081,6.175 0,3.321 2.739,6.075 6.041,6.075 1.953,0 4.007,-1.073 4.913,-2.592 0.4,-0.648 0.563,-1.316 0.603,-2.471 l -4.711,0 0,-0.81 5.658,0 z"
       clip-path="url(#SVGID_6_)" /></g><rect
     style="fill:#ffffff;fill-opacity:0.94117647"
     id="rect177"
     height="13.505"
     width="0.866"
     y="-3.9334834"
     x="343.17917" /><g
     transform="translate(227.43718,-153.74849)"
     style="fill:#ffffff;fill-opacity:0.94117647"
     id="g179"><defs
       id="defs181"><rect
         height="257.953"
         width="172.91299"
         y="12.496"
         x="12.496"
         id="SVGID_7_" /></defs><clipPath
       id="clipPath4231"><use
         height="282.94501"
         width="197.90601"
         y="0"
         x="0"
         style="overflow:visible"
         id="use4233"
         overflow="visible"
         xlink:href="#SVGID_7_" /></clipPath><path
       inkscape:connector-curvature="0"
       style="fill:#ffffff;fill-opacity:0.94117647"
       id="path187"
       d="m 126.211,152.082 c -0.765,-1.174 -1.489,-1.62 -2.638,-1.62 -1.43,0 -2.516,1.114 -2.516,2.553 0,1.093 0.543,1.68 2.375,2.57 1.731,0.831 2.074,1.014 2.679,1.397 0.945,0.628 1.409,1.499 1.409,2.632 0,2.146 -1.913,3.929 -4.189,3.929 -1.851,0 -3.181,-0.972 -3.966,-2.896 l 0.746,-0.364 c 0.825,1.741 1.731,2.429 3.22,2.429 1.813,0 3.283,-1.437 3.283,-3.179 0,-0.83 -0.464,-1.558 -1.309,-2.045 -0.303,-0.161 -0.766,-0.405 -1.351,-0.708 l -0.382,-0.182 -0.383,-0.203 -0.382,-0.183 c -2.073,-1.032 -2.658,-1.74 -2.658,-3.28 0,-1.884 1.47,-3.301 3.444,-3.301 1.389,0 2.556,0.689 3.261,1.925 l -0.643,0.526 z"
       clip-path="url(#SVGID_8_)" /><path
       inkscape:connector-curvature="0"
       style="fill:#ffffff;fill-opacity:0.94117647"
       id="path189"
       d="m 131.265,162.711 c 0,0.427 -0.323,0.749 -0.727,0.749 -0.402,0 -0.744,-0.344 -0.744,-0.749 0,-0.404 0.322,-0.729 0.744,-0.729 0.403,0.001 0.727,0.325 0.727,0.729"
       clip-path="url(#SVGID_8_)" /><path
       inkscape:connector-curvature="0"
       style="fill:#ffffff;fill-opacity:0.94117647"
       id="path191"
       d="m 140.464,157.001 c -0.986,-0.991 -1.792,-1.376 -2.898,-1.376 -1.893,0 -3.384,1.6 -3.384,3.604 0,1.985 1.511,3.563 3.404,3.563 1.127,0 2.094,-0.485 2.979,-1.497 l 0,1.093 c -0.945,0.79 -1.871,1.153 -2.979,1.153 -2.396,0 -4.229,-1.862 -4.229,-4.271 0,-2.511 1.833,-4.395 4.229,-4.395 1.107,0 1.931,0.305 2.878,1.054 l 0,1.072 z"
       clip-path="url(#SVGID_8_)" /><path
       inkscape:connector-curvature="0"
       style="fill:#ffffff;fill-opacity:0.94117647"
       id="path193"
       d="m 143.364,148.559 0,7.795 c 0.665,-1.053 1.41,-1.478 2.517,-1.478 0.947,0 1.854,0.444 2.276,1.154 0.282,0.465 0.401,1.094 0.401,2.085 l 0,5.203 -0.806,0 0,-5.203 c 0,-1.781 -0.562,-2.49 -1.972,-2.49 -1.611,0 -2.417,1.134 -2.417,3.401 l 0,4.292 -0.806,0 0,-14.76 0.807,0 z"
       clip-path="url(#SVGID_8_)" /></g></g></g></svg>