<?xml version="1.0" encoding="UTF-8" standalone="no"?>
<!-- Generator: Adobe Illustrator 16.0.0, SVG Export Plug-In . SVG Version: 6.00 Build 0)  -->

<svg
   xmlns:dc="http://purl.org/dc/elements/1.1/"
   xmlns:cc="http://creativecommons.org/ns#"
   xmlns:rdf="http://www.w3.org/1999/02/22-rdf-syntax-ns#"
   xmlns:svg="http://www.w3.org/2000/svg"
   xmlns="http://www.w3.org/2000/svg"
   xmlns:xlink="http://www.w3.org/1999/xlink"
   xmlns:sodipodi="http://sodipodi.sourceforge.net/DTD/sodipodi-0.dtd"
   xmlns:inkscape="http://www.inkscape.org/namespaces/inkscape"
   version="1.1"
   id="Layer_1"
   x="0px"
   y="0px"
   width="100.42272"
   height="29.599243"
   viewBox="0 0 100.42272 29.599242"
   enable-background="new 0 0 197.906 282.945"
   xml:space="preserve"
   inkscape:version="0.91 r13725"
   sodipodi:docname="openGIS-Text-white.svg"><metadata
     id="metadata211"><rdf:RDF><cc:Work
         rdf:about=""><dc:format>image/svg+xml</dc:format><dc:type
           rdf:resource="http://purl.org/dc/dcmitype/StillImage" /><dc:title></dc:title></cc:Work></rdf:RDF></metadata><defs
     id="defs209" /><sodipodi:namedview
     pagecolor="#ffffff"
     bordercolor="#666666"
     borderopacity="1"
     objecttolerance="10"
     gridtolerance="10"
     guidetolerance="10"
     inkscape:pageopacity="0"
     inkscape:pageshadow="2"
     inkscape:window-width="1600"
     inkscape:window-height="876"
     id="namedview207"
     showgrid="false"
     inkscape:zoom="2.3591468"
     inkscape:cx="-169.88233"
     inkscape:cy="-10.09849"
     inkscape:window-x="0"
     inkscape:window-y="24"
     inkscape:window-maximized="1"
     inkscape:current-layer="Layer_1"
     fit-margin-top="0"
     fit-margin-left="0"
     fit-margin-right="0"
     fit-margin-bottom="0" /><text
     id="text109"
     style="fill:#ffffff;fill-opacity:0.94117647;"
     x="0.42300102"
     y="28.3468"><tspan
       x="0.42300102"
       y="28.3468"
       font-size="9.5"
       id="tspan111"
       style="font-size:9.5px;fill:#ffffff;fill-opacity:0.94117647;font-family:FuturaT-Light;">A</tspan><tspan
       x="6.2469983"
       y="28.3468"
       font-size="9.5"
       id="tspan113"
       style="font-size:9.5px;fill:#ffffff;fill-opacity:0.94117647;font-family:FuturaT-Light;">ND</tspan><tspan
       x="20.115997"
       y="28.3468"
       font-size="9.5"
       id="tspan115"
       style="font-size:9.5px;fill:#ffffff;fill-opacity:0.94117647;font-family:FuturaT-Light;">R</tspan><tspan
       x="24.695"
       y="28.3468"
       font-size="9.5"
       id="tspan117"
       style="font-size:9.5px;fill:#ffffff;fill-opacity:0.94117647;font-family:FuturaT-Light;">OI</tspan><tspan
       x="34.964996"
       y="28.3468"
       font-size="9.5"
       id="tspan119"
       style="font-size:9.5px;fill:#ffffff;fill-opacity:0.94117647;font-family:FuturaT-Light;">D</tspan></text>
<text
     font-size="9.5"
     id="text121"
     style="font-size:9.5px;fill:#ffffff;font-family:FuturaT-Light;"
     x="41.1213"
     y="27.348692" />
<text
     font-size="9.5"
     id="text123"
     style="font-size:9.5px;fill:#ffffff;fill-opacity:0.94117647;font-family:FuturaT-Light;"
     x="42.574402"
     y="27.348692">·</text>
<text
     font-size="9.5"
     id="text125"
     style="font-size:9.5px;fill:#ffffff;font-family:FuturaT-Light;"
     x="44.816597"
     y="27.348692" />
<text
     font-size="9.5"
     id="text127"
     style="font-size:9.5px;fill:#ffffff;fill-opacity:0.94117647;font-family:FuturaT-Light;"
     x="46.270203"
     y="28.3468">[</text>
<text
     font-size="9.5"
     id="text129"
     style="font-size:9.5px;fill:#ffffff;fill-opacity:0.94117647;font-family:FuturaT-Light;"
     x="49.186699"
     y="28.3468">Q</text>
<text
     font-size="9.5"
     id="text131"
     style="font-size:9.5px;fill:#ffffff;fill-opacity:0.94117647;font-family:FuturaT-Light;"
     x="57.052399"
     y="28.3468">]</text>
<text
     id="text133"
     style="fill:#ffffff;fill-opacity:0.94117647;"
     x="59.969398"
     y="28.3468"><tspan
       x="59.969398"
       y="28.3468"
       font-size="9.5"
       id="tspan135"
       style="font-size:9.5px;fill:#ffffff;fill-opacity:0.94117647;font-family:FuturaT-Light;">GI</tspan><tspan
       x="69.982399"
       y="28.3468"
       font-size="9.5"
       id="tspan137"
       style="font-size:9.5px;fill:#ffffff;fill-opacity:0.94117647;font-family:FuturaT-Light;">S</tspan></text>
<text
     font-size="9.5"
     id="text139"
     style="font-size:9.5px;fill:#ffffff;font-family:FuturaT-Light;"
     x="75.1315"
     y="27.348692" />
<text
     font-size="9.5"
     id="text141"
     style="font-size:9.5px;fill:#ffffff;fill-opacity:0.94117647;font-family:FuturaT-Light;"
     x="76.584702"
     y="27.348692">·</text>
<text
     font-size="9.5"
     id="text143"
     style="font-size:9.5px;fill:#ffffff;font-family:FuturaT-Light;"
     x="78.826897"
     y="27.348692" />
<text
     id="text145"
     style="fill:#ffffff;fill-opacity:0.94117647;"
     x="80.280006"
     y="28.3468"><tspan
       x="80.280006"
       y="28.3468"
       font-size="9.5"
       id="tspan147"
       style="font-size:9.5px;fill:#ffffff;fill-opacity:0.94117647;font-family:FuturaT-Light;">WE</tspan><tspan
       x="94.577995"
       y="28.3468"
       font-size="9.5"
       id="tspan149"
       style="font-size:9.5px;fill:#ffffff;fill-opacity:0.94117647;font-family:FuturaT-Light;">B</tspan></text>
<g
     id="g151"
     style="fill:#ffffff;fill-opacity:0.94117647"
     transform="translate(-49.346,-148.558)"><defs
       id="defs153"><rect
         id="SVGID_3_"
         x="12.496"
         y="12.496"
         width="172.91299"
         height="257.953" /></defs><clipPath
       id="SVGID_4_"><use
         xlink:href="#SVGID_3_"
         overflow="visible"
         id="use157"
         style="overflow:visible"
         x="0"
         y="0"
         width="197.90601"
         height="282.94501" /></clipPath><path
       clip-path="url(#SVGID_4_)"
       d="m 51.38,156.597 c 0,2.835 2.215,5.062 4.993,5.062 2.759,0 4.973,-2.267 4.973,-5.062 0,-2.915 -2.155,-5.122 -4.973,-5.122 -2.819,0 -4.993,2.227 -4.993,5.122 m 12,-0.02 c 0,3.848 -3.141,7.006 -6.987,7.006 -3.946,0 -7.047,-3.058 -7.047,-6.966 0,-3.907 3.142,-7.065 7.047,-7.065 3.846,-0.001 6.987,3.157 6.987,7.025"
       id="path159"
       style="fill:#ffffff;fill-opacity:0.94117647"
       inkscape:connector-curvature="0" /><path
       clip-path="url(#SVGID_4_)"
       d="m 68.573,155.95 c 1.892,0 2.797,-0.709 2.797,-2.188 0,-1.377 -0.946,-2.064 -2.878,-2.064 h -0.665 v 4.252 h 0.746 z m -0.746,7.37 h -2.033 v -13.506 h 2.295 c 2.053,0 2.899,0.202 3.765,0.851 0.906,0.709 1.469,1.924 1.469,3.159 0,2.449 -1.771,4.009 -4.549,4.009 h -0.947 v 5.487 z"
       id="path161"
       style="fill:#ffffff;fill-opacity:0.94117647"
       inkscape:connector-curvature="0" /></g><polygon
     points="75.277,149.814 82.686,149.814 82.686,151.738 77.309,151.738 77.309,154.978 82.524,154.978 82.524,156.901 77.309,156.901 77.309,161.396 82.686,161.396 82.686,163.32 75.277,163.32 "
     id="polygon163"
     style="fill:#ffffff;fill-opacity:0.94117647"
     transform="translate(-49.346,-148.558)" /><polygon
     points="95.006,159.189 95.006,149.814 97.041,149.814 97.041,164.149 87.254,153.864 87.254,163.319 85.221,163.319 85.221,148.904 "
     id="polygon165"
     style="fill:#ffffff;fill-opacity:0.94117647"
     transform="translate(-49.346,-148.558)" /><g
     id="g167"
     style="fill:#ffffff;fill-opacity:0.94117647"
     transform="translate(-49.346,-148.558)"><defs
       id="defs169"><rect
         id="SVGID_5_"
         x="12.496"
         y="12.496"
         width="172.91299"
         height="257.953" /></defs><clipPath
       id="SVGID_6_"><use
         xlink:href="#SVGID_5_"
         overflow="visible"
         id="use173"
         style="overflow:visible"
         x="0"
         y="0"
         width="197.90601"
         height="282.94501" /></clipPath><path
       clip-path="url(#SVGID_6_)"
       d="m 112.985,156.84 c 0,1.822 -0.202,2.713 -0.826,3.726 -1.106,1.803 -3.361,2.977 -5.678,2.977 -3.744,0 -6.885,-3.159 -6.885,-6.925 0,-3.848 3.16,-6.985 7.007,-6.985 2.335,0 4.066,0.931 5.818,3.159 l -0.704,0.546 c -0.565,-0.749 -0.866,-1.093 -1.289,-1.438 -1.028,-0.912 -2.478,-1.438 -3.866,-1.438 -3.301,0 -6.081,2.835 -6.081,6.175 0,3.321 2.739,6.075 6.041,6.075 1.953,0 4.007,-1.073 4.913,-2.592 0.4,-0.648 0.563,-1.316 0.603,-2.471 h -4.711 v -0.81 h 5.658 z"
       id="path175"
       style="fill:#ffffff;fill-opacity:0.94117647"
       inkscape:connector-curvature="0" /></g><rect
     x="66.395996"
     y="1.2570025"
     width="0.866"
     height="13.505"
     id="rect177"
     style="fill:#ffffff;fill-opacity:0.94117647" /><g
     id="g179"
     style="fill:#ffffff;fill-opacity:0.94117647"
     transform="translate(-49.346,-148.558)"><defs
       id="defs181"><rect
         id="SVGID_7_"
         x="12.496"
         y="12.496"
         width="172.91299"
         height="257.953" /></defs><clipPath
       id="SVGID_8_"><use
         xlink:href="#SVGID_7_"
         overflow="visible"
         id="use185"
         style="overflow:visible"
         x="0"
         y="0"
         width="197.90601"
         height="282.94501" /></clipPath><path
       clip-path="url(#SVGID_8_)"
       d="m 126.211,152.082 c -0.765,-1.174 -1.489,-1.62 -2.638,-1.62 -1.43,0 -2.516,1.114 -2.516,2.553 0,1.093 0.543,1.68 2.375,2.57 1.731,0.831 2.074,1.014 2.679,1.397 0.945,0.628 1.409,1.499 1.409,2.632 0,2.146 -1.913,3.929 -4.189,3.929 -1.851,0 -3.181,-0.972 -3.966,-2.896 l 0.746,-0.364 c 0.825,1.741 1.731,2.429 3.22,2.429 1.813,0 3.283,-1.437 3.283,-3.179 0,-0.83 -0.464,-1.558 -1.309,-2.045 -0.303,-0.161 -0.766,-0.405 -1.351,-0.708 l -0.382,-0.182 -0.383,-0.203 -0.382,-0.183 c -2.073,-1.032 -2.658,-1.74 -2.658,-3.28 0,-1.884 1.47,-3.301 3.444,-3.301 1.389,0 2.556,0.689 3.261,1.925 l -0.643,0.526 z"
       id="path187"
       style="fill:#ffffff;fill-opacity:0.94117647"
       inkscape:connector-curvature="0" /><path
       clip-path="url(#SVGID_8_)"
       d="m 131.265,162.711 c 0,0.427 -0.323,0.749 -0.727,0.749 -0.402,0 -0.744,-0.344 -0.744,-0.749 0,-0.404 0.322,-0.729 0.744,-0.729 0.403,0.001 0.727,0.325 0.727,0.729"
       id="path189"
       style="fill:#ffffff;fill-opacity:0.94117647"
       inkscape:connector-curvature="0" /><path
       clip-path="url(#SVGID_8_)"
       d="m 140.464,157.001 c -0.986,-0.991 -1.792,-1.376 -2.898,-1.376 -1.893,0 -3.384,1.6 -3.384,3.604 0,1.985 1.511,3.563 3.404,3.563 1.127,0 2.094,-0.485 2.979,-1.497 v 1.093 c -0.945,0.79 -1.871,1.153 -2.979,1.153 -2.396,0 -4.229,-1.862 -4.229,-4.271 0,-2.511 1.833,-4.395 4.229,-4.395 1.107,0 1.931,0.305 2.878,1.054 v 1.072 z"
       id="path191"
       style="fill:#ffffff;fill-opacity:0.94117647"
       inkscape:connector-curvature="0" /><path
       clip-path="url(#SVGID_8_)"
       d="m 143.364,148.559 v 7.795 c 0.665,-1.053 1.41,-1.478 2.517,-1.478 0.947,0 1.854,0.444 2.276,1.154 0.282,0.465 0.401,1.094 0.401,2.085 v 5.203 h -0.806 v -5.203 c 0,-1.781 -0.562,-2.49 -1.972,-2.49 -1.611,0 -2.417,1.134 -2.417,3.401 v 4.292 h -0.806 v -14.76 h 0.807 z"
       id="path193"
       style="fill:#ffffff;fill-opacity:0.94117647"
       inkscape:connector-curvature="0" /></g></svg>